# xmcd
#
# Track frame offsets: 
#        151
#        25190
#        36576
#        46840
#        59677
#        69402
#        79515
#        90239
#        111327
#        120990
#        131877
#        144465
#        154823
#        165652
#        174000
#
# Disc length: 2482 seconds
#
# Revision: 1
# Processed by: cddbd v1.5.2PL0 Copyright (c) Steve Scherf et al.
# Submitted via: ExactAudioCopy v0.95b4
#
DISCID=c009b00f
DTITLE=Roots of Country - Roots of Country: The Story of Country Music
DTITLE=Various Artist - CD3
DYEAR=1996
DGENRE=Country
TTITLE0=Sarah Ophelia Colley - Five Minutes with Minnie Pearl
TTITLE1=The Louvin Brothers - When I Stop Dreaming
TTITLE2=George Jones - Why Baby Why 
TTITLE3=Johnny Cash - Folsom Prison Blues
TTITLE4=Carl Perkins - Matchbox
TTITLE5=Conway Twitty - It's Only Make Believe
TTITLE6=The Everly Brothers - Bye, Bye Love
TTITLE7=Marty Robbins - El Paso
TTITLE8=Hank Thompson - A Six Pack to Go 
TTITLE9=Faron Young - Hello Walls
TTITLE10=Hank Snow - I've Been Everywhere 
TTITLE11=Dave Dudley - Six Days on the Road
TTITLE12=Porter Wagoner - Green Green Grass of Home
TTITLE13=Roger Miller - Dang Me
TTITLE14=Patsy Cline - Crazy 
EXTD=ID3G: 2
EXTT0=
EXTT1=
EXTT2=
EXTT3=
EXTT4=
EXTT5=
EXTT6=
EXTT7=
EXTT8=
EXTT9=
EXTT10=
EXTT11=
EXTT12=
EXTT13=
EXTT14=
PLAYORDER=
